<svg width="130" height="65" viewBox="0 0 130 65" fill="none" xmlns="http://www.w3.org/2000/svg">
<mask id="mask0_1_63" style="mask-type:luminance" maskUnits="userSpaceOnUse" x="0" y="0" width="130" height="65">
<path d="M1.323 0.5H129.146V63.754H1.323V0.5Z" fill="white" stroke="white"/>
</mask>
<g mask="url(#mask0_1_63)">
<path d="M39.1443 63.753L65.6539 26.517L65.654 26.5169L83.9115 0.861428L96.6719 18.7958C96.6786 18.8067 96.6846 18.8158 96.6892 18.8226C96.6928 18.828 96.6965 18.8332 96.6998 18.8378L96.7031 18.8448L96.7288 18.8807L97.9434 20.5801L97.9438 20.5807L105.119 30.6531L81.5607 63.753H39.1443Z" fill="url(#paint0_linear_1_63)" stroke="black"/>
<path d="M128.676 63.753H90.5778L109.616 36.9822L128.676 63.753Z" fill="url(#paint1_linear_1_63)" stroke="black"/>
<path d="M1.79378 63.753L46.5738 0.862255L52.4946 9.18386L52.5119 9.20822L52.5317 9.23003C52.5396 9.23997 52.5477 9.24951 52.556 9.25864L63.6866 24.9009L63.6867 24.901L64.6312 26.228L37.9162 63.753H1.79378Z" fill="url(#paint2_linear_1_63)" stroke="black"/>
<g style="mix-blend-mode:multiply" opacity="0.2">
<path d="M64.631 26.2281L37.916 63.7531H28.7075L60.9134 21.0071L64.631 26.2281Z" fill="black" stroke="black"/>
</g>
<g style="mix-blend-mode:screen" opacity="0.3">
<path d="M89.4331 15.9081L58.3889 59.5281H47.3434L83.9137 8.15044L89.4331 15.9081Z" fill="white" stroke="black"/>
</g>
<g style="mix-blend-mode:screen" opacity="0.3">
<path d="M113.347 49.5084L106.224 59.5291H98.7586L109.619 44.276L113.347 49.5084Z" fill="white" stroke="black"/>
</g>
<g style="mix-blend-mode:screen" opacity="0.3">
<path d="M51.2697 14.753L19.4094 59.5281H9.99011L46.5741 8.15138L51.2697 14.753Z" fill="white" stroke="black"/>
</g>
<g style="mix-blend-mode:multiply" opacity="0.25">
<path d="M87.3498 55.5269L93.1529 47.4647L81.5599 63.7531H80.067L81.287 63.7381L81.5418 63.7349L81.6889 63.5269L87.3475 55.5302L87.3498 55.5269Z" fill="black" stroke="black"/>
</g>
<g style="mix-blend-mode:multiply" opacity="0.25">
<path d="M128.676 63.7531H117.531C118.231 63.7451 118.932 63.7387 119.632 63.7341M128.676 63.7531L125.422 59.1823C126.289 60.4324 127.163 61.6761 128.043 62.9132L128.605 63.7031H127.636C125.885 63.7031 124.14 63.7121 122.391 63.7211C121.473 63.7259 120.554 63.7306 119.632 63.7341M128.676 63.7531H129.29L114.857 43.4783C115.295 44.1691 115.744 44.8472 116.197 45.5318C116.47 45.9435 116.744 46.3577 117.019 46.7783C117.019 46.7788 117.019 46.7794 117.02 46.7799M119.632 63.7341C119.632 63.7341 119.632 63.7341 119.632 63.7341L119.63 63.2341M119.632 63.7341C119.633 63.7341 119.633 63.7341 119.633 63.7341L119.63 63.2341M119.63 63.2341C116.292 63.2561 112.954 63.3191 109.616 63.3931L119.229 50.4822L118.985 50.6441M119.63 63.2341C120.55 63.2307 121.469 63.2259 122.387 63.2212C123.932 63.2132 125.476 63.2052 127.023 63.2035C127.091 63.3 127.16 63.3965 127.229 63.493L127.636 63.2031V62.7031C127.518 62.7031 127.399 62.7031 127.281 62.7032C126.124 61.0714 124.978 59.4284 123.844 57.7741C122.208 55.4074 120.588 53.0308 118.985 50.6441M118.985 50.6441L119.228 50.4809L116.728 46.9699L116.601 47.0531L118.985 50.6441Z" fill="black" stroke="black"/>
</g>
<g style="mix-blend-mode:multiply" opacity="0.25">
<path d="M54.1775 40.9118L38.8015 62.5096C40.1262 60.61 41.4639 58.7203 42.8009 56.8314C43.3669 56.0318 43.9328 55.2324 44.4975 54.4325L44.4982 54.4313C46.0535 52.2155 47.6286 50.0213 49.2044 47.826C49.8956 46.8631 50.5869 45.9 51.2768 44.9348C52.2372 43.5912 53.2054 42.2509 54.1775 40.9118Z" fill="black" stroke="black"/>
</g>
<g style="mix-blend-mode:screen" opacity="0.5">
<path d="M65.6569 26.5218L74.9243 13.4992C74.2557 14.4577 73.5846 15.4145 72.9077 16.3686L72.9074 16.3689L67.2093 24.4154L67.2074 24.4179L61.4652 32.4187C61.4649 32.4191 61.4646 32.4196 61.4642 32.42C61.3639 32.5579 61.2636 32.6957 61.1633 32.8335L65.6568 26.5219L65.6569 26.5218ZM86.8092 4.93516L89.6864 8.97941L86.8092 4.93516ZM87.0984 4.71783C87.0983 4.71767 87.0982 4.71752 87.0981 4.71736L84.3419 1.03148L84.0627 0.658036L87.0984 4.71783Z" fill="white" stroke="black"/>
</g>
<g style="mix-blend-mode:screen" opacity="0.5">
<mask id="path-13-inside-1_1_63" fill="white">
<path d="M89.6143 64.2319H89.6243L89.6033 64.2539C89.6041 64.2455 89.608 64.2376 89.6143 64.2319Z"/>
</mask>
<path d="M89.6143 64.2319H89.6243L89.6033 64.2539C89.6041 64.2455 89.608 64.2376 89.6143 64.2319Z" fill="white"/>
<path d="M89.6143 64.2319V63.2319H89.2291L88.9434 63.4904L89.6143 64.2319ZM89.6243 64.2319L90.3475 64.9225L91.9619 63.2319H89.6243V64.2319ZM89.6033 64.2539L88.6078 64.1591L88.3343 67.0308L90.3265 64.9445L89.6033 64.2539ZM89.6143 65.2319H89.6243V63.2319H89.6143V65.2319ZM88.9011 63.5413L88.8801 63.5633L90.3265 64.9445L90.3475 64.9225L88.9011 63.5413ZM90.5988 64.3487C90.5763 64.5851 90.4668 64.8091 90.2852 64.9734L88.9434 63.4904C88.7492 63.6661 88.6319 63.9059 88.6078 64.1591L90.5988 64.3487Z" fill="black" mask="url(#path-13-inside-1_1_63)"/>
</g>
<g style="mix-blend-mode:screen" opacity="0.5">
<path d="M98.1662 53.1139C97.988 53.3627 97.8067 53.6082 97.6237 53.8514L102.515 46.9738C102.316 47.2716 102.114 47.5696 101.903 47.8671C101.538 48.3822 101.171 48.913 100.805 49.4413C100.557 49.7996 100.31 50.1568 100.065 50.5072L99.9736 50.6337C99.3707 51.4668 98.7697 52.2973 98.1706 53.1078L98.1706 53.1078L98.1662 53.1139Z" fill="white" stroke="black"/>
</g>
<g style="mix-blend-mode:screen" opacity="0.5">
<path d="M20.9349 36.8634L33.4286 19.3203C32.4763 20.6838 31.5179 22.0426 30.5599 23.4006C30.3231 23.7364 30.0862 24.0721 29.8495 24.4079C27.9603 27.0878 26.0515 29.7711 24.128 32.431L24.1266 32.433C23.0675 33.913 22.0037 35.3898 20.9349 36.8634Z" fill="white" stroke="black"/>
</g>
</g>
<defs>
<linearGradient id="paint0_linear_1_63" x1="61.955" y1="32.7043" x2="87.0007" y2="50.5121" gradientUnits="userSpaceOnUse">
<stop stop-color="#F55233"/>
<stop offset="1" stop-color="#A53826"/>
</linearGradient>
<linearGradient id="paint1_linear_1_63" x1="100.815" y1="50.8917" x2="120.142" y2="74.428" gradientUnits="userSpaceOnUse">
<stop stop-color="#9A3D2D"/>
<stop offset="1" stop-color="#1E4450"/>
</linearGradient>
<linearGradient id="paint2_linear_1_63" x1="24.1444" y1="32.4478" x2="47.8764" y2="48.6329" gradientUnits="userSpaceOnUse">
<stop stop-color="#FCC400"/>
<stop offset="0.162" stop-color="#FBC000"/>
<stop offset="0.307" stop-color="#FBB500"/>
<stop offset="0.446" stop-color="#FBA300"/>
<stop offset="0.581" stop-color="#FA8900"/>
<stop offset="0.712" stop-color="#FA6800"/>
<stop offset="0.842" stop-color="#F93F00"/>
<stop offset="0.967" stop-color="#F81000"/>
<stop offset="1" stop-color="#F80300"/>
</linearGradient>
</defs>
</svg>
